<svg width="33" height="33" viewBox="0 0 33 33" fill="none" xmlns="http://www.w3.org/2000/svg">
<circle cx="16.5" cy="16.5" r="16.5" fill="#F4F6F6"/>
<g clip-path="url(#clip0_3770_17298)">
<path d="M15.992 9C11.576 9 8 12.584 8 17C8 21.416 11.576 25 15.992 25C20.416 25 24 21.416 24 17C24 12.584 20.416 9 15.992 9ZM21.536 13.8H19.176C18.92 12.8 18.552 11.84 18.072 10.952C19.544 11.456 20.768 12.48 21.536 13.8ZM16 10.632C16.664 11.592 17.184 12.656 17.528 13.8H14.472C14.816 12.656 15.336 11.592 16 10.632ZM9.808 18.6C9.68 18.088 9.6 17.552 9.6 17C9.6 16.448 9.68 15.912 9.808 15.4H12.512C12.448 15.928 12.4 16.456 12.4 17C12.4 17.544 12.448 18.072 12.512 18.6H9.808ZM10.464 20.2H12.824C13.08 21.2 13.448 22.16 13.928 23.048C12.456 22.544 11.232 21.528 10.464 20.2ZM12.824 13.8H10.464C11.232 12.472 12.456 11.456 13.928 10.952C13.448 11.84 13.08 12.8 12.824 13.8ZM16 23.368C15.336 22.408 14.816 21.344 14.472 20.2H17.528C17.184 21.344 16.664 22.408 16 23.368ZM17.872 18.6H14.128C14.056 18.072 14 17.544 14 17C14 16.456 14.056 15.92 14.128 15.4H17.872C17.944 15.92 18 16.456 18 17C18 17.544 17.944 18.072 17.872 18.6ZM18.072 23.048C18.552 22.16 18.92 21.2 19.176 20.2H21.536C20.768 21.52 19.544 22.544 18.072 23.048ZM19.488 18.6C19.552 18.072 19.6 17.544 19.6 17C19.6 16.456 19.552 15.928 19.488 15.4H22.192C22.32 15.912 22.4 16.448 22.4 17C22.4 17.552 22.32 18.088 22.192 18.6H19.488Z" fill="#FF2B85"/>
</g>
<defs>
<clipPath id="clip0_3770_17298">
<rect width="24" height="24" fill="white" transform="translate(4 5)"/>
</clipPath>
</defs>
</svg>
